<svg width="32" height="32" viewBox="0 0 32 32" fill="none" xmlns="http://www.w3.org/2000/svg">
    <defs>
        <linearGradient id="waterGrad" x1="0%" y1="0%" x2="100%" y2="100%">
            <stop offset="0%" style="stop-color:#00C9FF;stop-opacity:1" />
            <stop offset="100%" style="stop-color:#0066CC;stop-opacity:1" />
        </linearGradient>
        <linearGradient id="bookGrad" x1="0%" y1="0%" x2="100%" y2="100%">
            <stop offset="0%" style="stop-color:#667eea;stop-opacity:1" />
            <stop offset="100%" style="stop-color:#764ba2;stop-opacity:1" />
        </linearGradient>
        <linearGradient id="circleGrad" x1="0%" y1="0%" x2="100%" y2="100%">
            <stop offset="0%" style="stop-color:#667eea;stop-opacity:0.1" />
            <stop offset="100%" style="stop-color:#764ba2;stop-opacity:0.1" />
        </linearGradient>
    </defs>
    
    <!-- Runder Hintergrund -->
    <circle cx="16" cy="16" r="15" fill="url(#circleGrad)" stroke="url(#bookGrad)" stroke-width="0.5" opacity="0.3"/>
    
    <!-- Buch (angepasst für runden Container) -->
    <g transform="translate(16, 16)">
        <rect x="-6" y="-8" width="12" height="16" rx="1.5" fill="url(#bookGrad)"/>
        
        <!-- Buchseite Mittellinie -->
        <line x1="0" y1="-8" x2="0" y2="8" stroke="white" stroke-width="0.5" opacity="0.3"/>
        
        <!-- Buchseiten Details -->
        <line x1="-4" y1="-4" x2="-1.5" y2="-4" stroke="white" stroke-width="0.5" opacity="0.5" stroke-linecap="round"/>
        <line x1="1.5" y1="-4" x2="4" y2="-4" stroke="white" stroke-width="0.5" opacity="0.5" stroke-linecap="round"/>
    </g>
    
    <!-- Wasser Wellen -->
    <g transform="translate(16, 22)">
        <path d="M -8 0 Q -5.5 -1.5, -3 0 T 3 0 T 8 0" 
              stroke="url(#waterGrad)" 
              stroke-width="1.5" 
              fill="none" 
              stroke-linecap="round"
              opacity="0.9"/>
        
        <path d="M -8 2 Q -5.5 0.5, -3 2 T 3 2 T 8 2" 
              stroke="url(#waterGrad)" 
              stroke-width="1.5" 
              fill="none" 
              stroke-linecap="round"
              opacity="0.7"/>
    </g>
    
    <!-- Wassertropfen Akzent -->
    <circle cx="16" cy="11" r="1.5" fill="url(#waterGrad)" opacity="0.9"/>
    <circle cx="16" cy="10.5" r="0.5" fill="white" opacity="0.7"/>
    
    <!-- Runder Akzent -->
    <circle cx="16" cy="16" r="14" fill="none" stroke="url(#bookGrad)" stroke-width="0.3" opacity="0.2"/>
</svg>
