<svg width="200" height="200" viewBox="0 0 200 200" fill="none" xmlns="http://www.w3.org/2000/svg">
    <defs>
        <linearGradient id="waterGradient" x1="0%" y1="0%" x2="100%" y2="100%">
            <stop offset="0%" style="stop-color:#00C9FF;stop-opacity:1" />
            <stop offset="100%" style="stop-color:#0066CC;stop-opacity:1" />
        </linearGradient>
        <linearGradient id="bookGradient" x1="0%" y1="0%" x2="100%" y2="100%">
            <stop offset="0%" style="stop-color:#667eea;stop-opacity:1" />
            <stop offset="100%" style="stop-color:#764ba2;stop-opacity:1" />
        </linearGradient>
        <filter id="shadow">
            <feDropShadow dx="0" dy="4" stdDeviation="8" flood-opacity="0.2"/>
        </filter>
    </defs>
    
    <!-- Buch/Book Element -->
    <rect x="50" y="40" width="100" height="130" rx="8" fill="url(#bookGradient)" filter="url(#shadow)"/>
    
    <!-- Buchseiten Details -->
    <line x1="100" y1="40" x2="100" y2="170" stroke="white" stroke-width="2" opacity="0.3"/>
    <line x1="65" y1="70" x2="90" y2="70" stroke="white" stroke-width="2" opacity="0.5" stroke-linecap="round"/>
    <line x1="65" y1="85" x2="90" y2="85" stroke="white" stroke-width="2" opacity="0.5" stroke-linecap="round"/>
    <line x1="110" y1="70" x2="135" y2="70" stroke="white" stroke-width="2" opacity="0.5" stroke-linecap="round"/>
    <line x1="110" y1="85" x2="135" y2="85" stroke="white" stroke-width="2" opacity="0.5" stroke-linecap="round"/>
    
    <!-- Wasser Wellen Element (stylisiert) -->
    <g transform="translate(0, 100)">
        <!-- Erste Welle -->
        <path d="M 60 20 Q 75 10, 90 20 T 120 20 T 140 20" 
              stroke="url(#waterGradient)" 
              stroke-width="4" 
              fill="none" 
              stroke-linecap="round"
              opacity="0.9"/>
        
        <!-- Zweite Welle -->
        <path d="M 60 35 Q 75 25, 90 35 T 120 35 T 140 35" 
              stroke="url(#waterGradient)" 
              stroke-width="4" 
              fill="none" 
              stroke-linecap="round"
              opacity="0.7"/>
        
        <!-- Dritte Welle -->
        <path d="M 60 50 Q 75 40, 90 50 T 120 50 T 140 50" 
              stroke="url(#waterGradient)" 
              stroke-width="4" 
              fill="none" 
              stroke-linecap="round"
              opacity="0.5"/>
    </g>
    
    <!-- Wassertropfen/Schwimmer Akzent -->
    <circle cx="100" cy="60" r="12" fill="url(#waterGradient)" opacity="0.9">
        <animate attributeName="opacity" values="0.9;1;0.9" dur="2s" repeatCount="indefinite"/>
    </circle>
    <circle cx="100" cy="57" r="4" fill="white" opacity="0.7"/>
    
    <!-- Zusätzliche Design-Elemente: Kleine Punkte für Dynamik -->
    <circle cx="75" cy="105" r="3" fill="#00C9FF" opacity="0.6">
        <animate attributeName="cy" values="105;100;105" dur="3s" repeatCount="indefinite"/>
    </circle>
    <circle cx="125" cy="110" r="3" fill="#0066CC" opacity="0.6">
        <animate attributeName="cy" values="110;105;110" dur="2.5s" repeatCount="indefinite"/>
    </circle>
</svg>
